<svg width="274" height="52" viewBox="0 0 274 52" fill="none" xmlns="http://www.w3.org/2000/svg">
<path d="M4.368 24V6.368C4.368 4.64 4.77333 3.36 5.584 2.528C6.416 1.696 7.71733 1.28 9.488 1.28H15.152V4.736H10.48C9.86133 4.736 9.40267 4.88533 9.104 5.184C8.82667 5.46133 8.688 5.86667 8.688 6.4V24H4.368ZM0.0480001 10.304V6.848H15.024V10.304H0.0480001ZM24.3555 24.384C23.3102 24.384 22.3502 24.192 21.4755 23.808C20.6008 23.424 19.9075 22.8693 19.3955 22.144C18.9048 21.4187 18.6595 20.5547 18.6595 19.552C18.6595 18.1013 19.1182 16.9707 20.0355 16.16C20.9742 15.3493 22.2542 14.7733 23.8755 14.432L29.0275 13.312C29.0275 12.224 28.8035 11.392 28.3555 10.816C27.9288 10.24 27.2248 9.952 26.2435 9.952C25.3902 9.952 24.7288 10.1653 24.2595 10.592C23.7902 11.0187 23.4808 11.584 23.3315 12.288L18.8515 12.032C19.1715 10.3467 19.9715 9.00267 21.2515 8C22.5528 6.976 24.1955 6.464 26.1795 6.464C28.6542 6.464 30.4675 7.09333 31.6195 8.352C32.7928 9.58933 33.3795 11.328 33.3795 13.568V19.616C33.3795 20.0427 33.4542 20.3413 33.6035 20.512C33.7528 20.6613 33.9768 20.736 34.2755 20.736H34.9795V24C34.8515 24.0213 34.6382 24.0427 34.3395 24.064C34.0408 24.1067 33.7315 24.128 33.4115 24.128C32.5582 24.128 31.8328 23.9787 31.2355 23.68C30.6382 23.3813 30.1795 22.944 29.8595 22.368C29.5608 21.792 29.3902 21.0987 29.3475 20.288H29.8275C29.7208 21.056 29.4328 21.76 28.9635 22.4C28.4942 23.0187 27.8648 23.5093 27.0755 23.872C26.2862 24.2133 25.3795 24.384 24.3555 24.384ZM25.2515 21.12C26.0622 21.12 26.7448 20.9813 27.2995 20.704C27.8542 20.4053 28.2808 19.9787 28.5795 19.424C28.8782 18.848 29.0275 18.176 29.0275 17.408V16.384L25.2195 17.216C24.4515 17.3867 23.9075 17.632 23.5875 17.952C23.2675 18.272 23.1075 18.7307 23.1075 19.328C23.1075 19.8827 23.2888 20.32 23.6515 20.64C24.0142 20.96 24.5475 21.12 25.2515 21.12ZM44.087 24.384C42.7217 24.384 41.527 24.032 40.503 23.328C39.479 22.624 38.679 21.6107 38.103 20.288C37.5483 18.944 37.271 17.3227 37.271 15.424C37.271 13.5253 37.5483 11.9147 38.103 10.592C38.679 9.248 39.479 8.224 40.503 7.52C41.527 6.816 42.7217 6.464 44.087 6.464C45.2817 6.464 46.3163 6.73067 47.191 7.264C48.0657 7.776 48.7057 8.448 49.111 9.28V1.28H53.463V24H49.303L49.175 21.28C48.7483 22.1973 48.0977 22.944 47.223 23.52C46.3697 24.096 45.3243 24.384 44.087 24.384ZM45.335 20.544C46.103 20.544 46.7643 20.352 47.319 19.968C47.895 19.5627 48.3323 18.976 48.631 18.208C48.951 17.44 49.111 16.512 49.111 15.424C49.111 14.3147 48.951 13.376 48.631 12.608C48.3323 11.84 47.895 11.264 47.319 10.88C46.7643 10.496 46.103 10.304 45.335 10.304C44.1617 10.304 43.2763 10.7413 42.679 11.616C42.0817 12.4907 41.783 13.76 41.783 15.424C41.783 17.0667 42.0817 18.336 42.679 19.232C43.2763 20.1067 44.1617 20.544 45.335 20.544ZM58.0585 24V1.28H62.4105V10.528L62.0585 10.208C62.3145 9.33333 62.6878 8.62933 63.1785 8.096C63.6692 7.54133 64.2665 7.136 64.9705 6.88C65.6745 6.60267 66.4425 6.464 67.2745 6.464C68.4692 6.464 69.4505 6.73067 70.2185 7.264C70.9865 7.79733 71.5625 8.55467 71.9465 9.536C72.3305 10.496 72.5225 11.6267 72.5225 12.928V24H68.1705V13.824C68.1705 12.5013 67.9465 11.5627 67.4985 11.008C67.0505 10.432 66.4212 10.144 65.6105 10.144C64.6932 10.144 63.9252 10.4747 63.3065 11.136C62.7092 11.7973 62.4105 12.7893 62.4105 14.112V24H58.0585ZM83.294 24V6.848H87.646V24H83.294ZM76.926 24V20.544H93.054V24H76.926ZM77.246 10.304V6.848H86.846V10.304H77.246ZM83.166 4.736V0.959999H87.582V4.736H83.166ZM101.81 24V6.72C101.81 6.05867 101.639 5.568 101.298 5.248C100.956 4.90667 100.466 4.736 99.8255 4.736H96.1135V1.28H100.594C102.45 1.28 103.836 1.74933 104.754 2.688C105.692 3.60533 106.162 4.98133 106.162 6.816V24H101.81ZM95.4735 24V20.544H111.602V24H95.4735ZM115.045 24V1.28H119.397V14.336L125.925 6.848H131.077L124.549 14.176L131.365 24H126.405L121.701 16.992L119.397 19.52V24H115.045ZM134.809 24V1.28H139.161V10.528L138.809 10.208C139.065 9.33333 139.438 8.62933 139.929 8.096C140.419 7.54133 141.017 7.136 141.72 6.88C142.425 6.60267 143.193 6.464 144.025 6.464C145.219 6.464 146.201 6.73067 146.969 7.264C147.737 7.79733 148.313 8.55467 148.697 9.536C149.081 10.496 149.273 11.6267 149.273 12.928V24H144.921V13.824C144.921 12.5013 144.697 11.5627 144.249 11.008C143.801 10.432 143.171 10.144 142.361 10.144C141.443 10.144 140.675 10.4747 140.057 11.136C139.459 11.7973 139.161 12.7893 139.161 14.112V24H134.809ZM161.1 24.384C159.479 24.384 158.06 24.0213 156.844 23.296C155.628 22.5493 154.679 21.504 153.996 20.16C153.313 18.816 152.972 17.2373 152.972 15.424C152.972 13.5893 153.313 12.0107 153.996 10.688C154.679 9.344 155.628 8.30933 156.844 7.584C158.06 6.83733 159.479 6.464 161.1 6.464C162.721 6.464 164.14 6.83733 165.356 7.584C166.572 8.30933 167.521 9.344 168.204 10.688C168.887 12.0107 169.228 13.5893 169.228 15.424C169.228 17.2373 168.887 18.816 168.204 20.16C167.521 21.504 166.572 22.5493 165.356 23.296C164.14 24.0213 162.721 24.384 161.1 24.384ZM161.1 20.544C162.252 20.544 163.137 20.1067 163.756 19.232C164.396 18.336 164.716 17.0667 164.716 15.424C164.716 13.76 164.396 12.4907 163.756 11.616C163.137 10.7413 162.252 10.304 161.1 10.304C159.948 10.304 159.052 10.7413 158.412 11.616C157.793 12.4907 157.484 13.76 157.484 15.424C157.484 17.0667 157.793 18.336 158.412 19.232C159.052 20.1067 159.948 20.544 161.1 20.544ZM178.56 24V6.72C178.56 6.05867 178.389 5.568 178.048 5.248C177.706 4.90667 177.216 4.736 176.576 4.736H172.864V1.28H177.344C179.2 1.28 180.586 1.74933 181.504 2.688C182.442 3.60533 182.912 4.98133 182.912 6.816V24H178.56ZM172.224 24V20.544H188.352V24H172.224ZM197.043 24.384C195.998 24.384 195.038 24.192 194.163 23.808C193.288 23.424 192.595 22.8693 192.083 22.144C191.592 21.4187 191.347 20.5547 191.347 19.552C191.347 18.1013 191.806 16.9707 192.723 16.16C193.662 15.3493 194.942 14.7733 196.563 14.432L201.715 13.312C201.715 12.224 201.491 11.392 201.043 10.816C200.616 10.24 199.912 9.952 198.931 9.952C198.078 9.952 197.416 10.1653 196.947 10.592C196.478 11.0187 196.168 11.584 196.019 12.288L191.539 12.032C191.859 10.3467 192.659 9.00267 193.939 8C195.24 6.976 196.883 6.464 198.867 6.464C201.342 6.464 203.155 7.09333 204.307 8.352C205.48 9.58933 206.067 11.328 206.067 13.568V19.616C206.067 20.0427 206.142 20.3413 206.291 20.512C206.44 20.6613 206.664 20.736 206.963 20.736H207.667V24C207.539 24.0213 207.326 24.0427 207.027 24.064C206.728 24.1067 206.419 24.128 206.099 24.128C205.246 24.128 204.52 23.9787 203.923 23.68C203.326 23.3813 202.867 22.944 202.547 22.368C202.248 21.792 202.078 21.0987 202.035 20.288H202.515C202.408 21.056 202.12 21.76 201.651 22.4C201.182 23.0187 200.552 23.5093 199.763 23.872C198.974 24.2133 198.067 24.384 197.043 24.384ZM197.939 21.12C198.75 21.12 199.432 20.9813 199.987 20.704C200.542 20.4053 200.968 19.9787 201.267 19.424C201.566 18.848 201.715 18.176 201.715 17.408V16.384L197.907 17.216C197.139 17.3867 196.595 17.632 196.275 17.952C195.955 18.272 195.795 18.7307 195.795 19.328C195.795 19.8827 195.976 20.32 196.339 20.64C196.702 20.96 197.235 21.12 197.939 21.12ZM215.431 24V6.368C215.431 4.64 215.836 3.36 216.647 2.528C217.479 1.696 218.78 1.28 220.551 1.28H226.215V4.736H221.543C220.924 4.736 220.465 4.88533 220.167 5.184C219.889 5.46133 219.751 5.86667 219.751 6.4V24H215.431ZM211.111 10.304V6.848H226.087V10.304H211.111ZM247.79 24L260.594 1.78L273.442 24H247.79ZM15.78 36.68C15.6867 36.8667 15.6 37.0933 15.52 37.36C15.4533 37.6133 15.3933 37.8533 15.34 38.08C15.2333 38.56 15.0933 39.1067 14.92 39.72C14.7467 40.3333 14.54 40.9667 14.3 41.62C14.06 42.2733 13.7733 42.92 13.44 43.56C13.12 44.2 12.7533 44.8 12.34 45.36C11.74 46.1467 11.04 46.8933 10.24 47.6C9.44 48.2933 8.54667 48.92 7.56 49.48C6.57333 50.0267 5.48667 50.4933 4.3 50.88L2.12 48.5C3.44 48.18 4.58 47.7867 5.54 47.32C6.51333 46.84 7.36 46.3067 8.08 45.72C8.8 45.12 9.42667 44.48 9.96 43.8C10.4 43.24 10.7733 42.6333 11.08 41.98C11.4 41.3267 11.66 40.6667 11.86 40C12.0733 39.3333 12.22 38.72 12.3 38.16C12.1 38.16 11.7667 38.16 11.3 38.16C10.8467 38.16 10.3067 38.16 9.68 38.16C9.06667 38.16 8.42 38.16 7.74 38.16C7.07333 38.16 6.42667 38.16 5.8 38.16C5.17333 38.16 4.60667 38.16 4.1 38.16C3.60667 38.16 3.23333 38.16 2.98 38.16C2.52667 38.16 2.08 38.1667 1.64 38.18C1.21333 38.1933 0.866667 38.2133 0.6 38.24V35.42C0.813334 35.4333 1.06 35.4533 1.34 35.48C1.62 35.5067 1.91333 35.5333 2.22 35.56C2.52667 35.5733 2.78667 35.58 3 35.58C3.2 35.58 3.5 35.58 3.9 35.58C4.3 35.58 4.76 35.58 5.28 35.58C5.8 35.58 6.34 35.58 6.9 35.58C7.47333 35.58 8.04 35.58 8.6 35.58C9.16 35.58 9.68667 35.58 10.18 35.58C10.6733 35.58 11.1 35.58 11.46 35.58C11.8333 35.58 12.0933 35.58 12.24 35.58C12.44 35.58 12.6867 35.5733 12.98 35.56C13.2733 35.5333 13.5467 35.4867 13.8 35.42L15.78 36.68ZM35.78 40.02C35.6867 40.1267 35.58 40.26 35.46 40.42C35.34 40.58 35.2467 40.7133 35.18 40.82C35.0067 41.1 34.7667 41.4467 34.46 41.86C34.1667 42.2733 33.8333 42.72 33.46 43.2C33.0867 43.6667 32.7067 44.1067 32.32 44.52C31.9333 44.9333 31.56 45.28 31.2 45.56L29.2 44.16C29.5733 43.8933 29.9533 43.58 30.34 43.22C30.7267 42.86 31.0733 42.4933 31.38 42.12C31.6867 41.7333 31.92 41.4 32.08 41.12C31.92 41.12 31.62 41.12 31.18 41.12C30.74 41.12 30.22 41.12 29.62 41.12C29.0333 41.12 28.4133 41.12 27.76 41.12C27.1067 41.12 26.48 41.12 25.88 41.12C25.28 41.12 24.76 41.12 24.32 41.12C23.88 41.12 23.5733 41.12 23.4 41.12C23.0667 41.12 22.7267 41.1333 22.38 41.16C22.0467 41.1733 21.6933 41.2 21.32 41.24V38.66C21.64 38.7133 21.98 38.7533 22.34 38.78C22.7133 38.8067 23.0667 38.82 23.4 38.82C23.5733 38.82 23.8933 38.82 24.36 38.82C24.84 38.82 25.4067 38.82 26.06 38.82C26.7133 38.82 27.3933 38.82 28.1 38.82C28.8067 38.82 29.48 38.82 30.12 38.82C30.76 38.82 31.3067 38.82 31.76 38.82C32.2267 38.82 32.5333 38.82 32.68 38.82C32.8267 38.82 33.0067 38.8133 33.22 38.8C33.4333 38.7867 33.64 38.7733 33.84 38.76C34.0533 38.7333 34.2067 38.7067 34.3 38.68L35.78 40.02ZM28.92 42.12C28.8933 42.8667 28.86 43.6067 28.82 44.34C28.78 45.06 28.68 45.7667 28.52 46.46C28.3733 47.14 28.1333 47.8067 27.8 48.46C27.4667 49.1 27 49.7067 26.4 50.28C25.8133 50.8667 25.0533 51.42 24.12 51.94L22 50.24C22.2667 50.1333 22.5267 50.02 22.78 49.9C23.0467 49.7667 23.3267 49.5933 23.62 49.38C24.38 48.86 24.9533 48.3133 25.34 47.74C25.7267 47.1533 25.98 46.52 26.1 45.84C26.2333 45.1467 26.3 44.38 26.3 43.54C26.3 43.3 26.2867 43.06 26.26 42.82C26.2333 42.5667 26.2 42.3333 26.16 42.12H28.92ZM41.76 34.9C42.08 34.9533 42.4333 34.9933 42.82 35.02C43.2067 35.0467 43.5667 35.06 43.9 35.06C44.1533 35.06 44.5 35.06 44.94 35.06C45.38 35.06 45.8667 35.06 46.4 35.06C46.9333 35.06 47.46 35.06 47.98 35.06C48.5133 35.06 49 35.06 49.44 35.06C49.88 35.06 50.2133 35.06 50.44 35.06C50.7867 35.06 51.1467 35.0467 51.52 35.02C51.8933 34.9933 52.2533 34.9533 52.6 34.9V37.48C52.2533 37.4533 51.8933 37.44 51.52 37.44C51.1467 37.4267 50.7867 37.42 50.44 37.42C50.2133 37.42 49.88 37.42 49.44 37.42C49 37.42 48.5133 37.42 47.98 37.42C47.46 37.42 46.9333 37.42 46.4 37.42C45.88 37.42 45.3933 37.42 44.94 37.42C44.5 37.42 44.1533 37.42 43.9 37.42C43.5533 37.42 43.1867 37.4267 42.8 37.44C42.4133 37.44 42.0667 37.4533 41.76 37.48V34.9ZM39.44 40.02C39.7333 40.06 40.0467 40.0933 40.38 40.12C40.7267 40.1333 41.0533 40.14 41.36 40.14C41.5333 40.14 41.88 40.14 42.4 40.14C42.92 40.14 43.5467 40.14 44.28 40.14C45.0267 40.14 45.82 40.14 46.66 40.14C47.5 40.14 48.34 40.14 49.18 40.14C50.0333 40.14 50.8267 40.14 51.56 40.14C52.2933 40.14 52.9133 40.14 53.42 40.14C53.94 40.14 54.2867 40.14 54.46 40.14C54.6733 40.14 54.96 40.1333 55.32 40.12C55.6933 40.0933 56.0133 40.06 56.28 40.02V42.62C56.04 42.5933 55.7467 42.58 55.4 42.58C55.0533 42.5667 54.74 42.56 54.46 42.56C54.2867 42.56 53.94 42.56 53.42 42.56C52.9133 42.56 52.2933 42.56 51.56 42.56C50.8267 42.56 50.0333 42.56 49.18 42.56C48.34 42.56 47.5 42.56 46.66 42.56C45.82 42.56 45.0267 42.56 44.28 42.56C43.5467 42.56 42.92 42.56 42.4 42.56C41.88 42.56 41.5333 42.56 41.36 42.56C41.0667 42.56 40.74 42.5667 40.38 42.58C40.0333 42.5933 39.72 42.6133 39.44 42.64V40.02ZM49.68 41.42C49.68 42.7133 49.5667 43.88 49.34 44.92C49.1133 45.9467 48.7867 46.8733 48.36 47.7C48.1333 48.1533 47.8133 48.62 47.4 49.1C47 49.58 46.54 50.0333 46.02 50.46C45.5 50.8867 44.94 51.2467 44.34 51.54L42 49.84C42.7067 49.5733 43.3867 49.18 44.04 48.66C44.6933 48.1267 45.22 47.5667 45.62 46.98C46.1267 46.22 46.4667 45.3733 46.64 44.44C46.8133 43.5067 46.9 42.5 46.9 41.42H49.68ZM53.8 33.52C53.9733 33.76 54.1533 34.0467 54.34 34.38C54.54 34.7133 54.7267 35.0467 54.9 35.38C55.0867 35.7133 55.2467 36.0067 55.38 36.26L53.78 36.96C53.5667 36.5467 53.3133 36.08 53.02 35.56C52.74 35.0267 52.4667 34.5667 52.2 34.18L53.8 33.52ZM56.16 32.62C56.3333 32.8733 56.52 33.1733 56.72 33.52C56.92 33.8533 57.1133 34.1867 57.3 34.52C57.5 34.84 57.66 35.1133 57.78 35.34L56.18 36.04C55.98 35.6133 55.7267 35.14 55.42 34.62C55.1267 34.1 54.8467 33.6533 54.58 33.28L56.16 32.62ZM58.7338 44.3C59.6004 44.1133 60.4804 43.86 61.3738 43.54C62.2804 43.2067 63.1271 42.8533 63.9138 42.48C64.7004 42.0933 65.3604 41.7467 65.8938 41.44C66.5471 41.04 67.1871 40.5933 67.8138 40.1C68.4538 39.5933 69.0404 39.0867 69.5738 38.58C70.1071 38.0733 70.5404 37.6 70.8738 37.16L72.8538 39.1C72.4671 39.54 71.9538 40.0267 71.3138 40.56C70.6871 41.08 70.0071 41.6067 69.2738 42.14C68.5404 42.66 67.8071 43.1333 67.0738 43.56C66.6204 43.84 66.1004 44.1267 65.5138 44.42C64.9271 44.7 64.3071 44.98 63.6538 45.26C63.0138 45.5267 62.3671 45.78 61.7138 46.02C61.0738 46.26 60.4738 46.4733 59.9138 46.66L58.7338 44.3ZM65.6538 43L68.3738 42.48V49.6C68.3738 49.8267 68.3738 50.0867 68.3738 50.38C68.3871 50.6733 68.4071 50.94 68.4338 51.18C68.4604 51.4333 68.4871 51.6267 68.5138 51.76H65.5538C65.5804 51.6267 65.5938 51.4333 65.5938 51.18C65.6071 50.94 65.6204 50.6733 65.6338 50.38C65.6471 50.0867 65.6538 49.8267 65.6538 49.6V43ZM86.6538 49.56C86.6938 49.36 86.7271 49.1333 86.7538 48.88C86.7938 48.6133 86.8138 48.3467 86.8138 48.08C86.8138 47.9333 86.8138 47.64 86.8138 47.2C86.8138 46.76 86.8138 46.2267 86.8138 45.6C86.8138 44.9733 86.8138 44.3 86.8138 43.58C86.8138 42.8467 86.8138 42.1067 86.8138 41.36C86.8138 40.6133 86.8138 39.9133 86.8138 39.26C86.8138 38.5933 86.8138 38.0133 86.8138 37.52C86.8138 37.0133 86.8138 36.6467 86.8138 36.42C86.8138 35.9667 86.7871 35.5733 86.7338 35.24C86.6938 34.9067 86.6671 34.7267 86.6538 34.7H89.6338C89.6204 34.7267 89.5938 34.9133 89.5538 35.26C89.5138 35.5933 89.4938 35.9867 89.4938 36.44C89.4938 36.6667 89.4938 37.0067 89.4938 37.46C89.4938 37.9 89.4938 38.4133 89.4938 39C89.4938 39.5733 89.4938 40.1867 89.4938 40.84C89.4938 41.4933 89.4938 42.14 89.4938 42.78C89.4938 43.4067 89.4938 44.0067 89.4938 44.58C89.4938 45.14 89.4938 45.62 89.4938 46.02C89.4938 46.42 89.4938 46.7133 89.4938 46.9C90.0404 46.66 90.6071 46.3333 91.1938 45.92C91.7804 45.5067 92.3538 45.0267 92.9138 44.48C93.4871 43.92 93.9938 43.32 94.4338 42.68L95.9738 44.88C95.4271 45.6 94.7604 46.3067 93.9738 47C93.2004 47.6933 92.4004 48.3267 91.5738 48.9C90.7471 49.4733 89.9538 49.9533 89.1938 50.34C88.9804 50.46 88.8071 50.5667 88.6738 50.66C88.5404 50.7667 88.4271 50.86 88.3338 50.94L86.6538 49.56ZM77.3938 49.26C78.2738 48.6467 78.9938 47.9067 79.5538 47.04C80.1138 46.1733 80.5271 45.32 80.7938 44.48C80.9404 44.04 81.0471 43.5 81.1138 42.86C81.1938 42.2067 81.2538 41.5133 81.2938 40.78C81.3338 40.0333 81.3538 39.3 81.3538 38.58C81.3671 37.8467 81.3738 37.1733 81.3738 36.56C81.3738 36.16 81.3538 35.82 81.3138 35.54C81.2871 35.2467 81.2471 34.9733 81.1938 34.72H84.1338C84.1204 34.7467 84.1004 34.86 84.0738 35.06C84.0604 35.2467 84.0404 35.4733 84.0138 35.74C84.0004 35.9933 83.9938 36.26 83.9938 36.54C83.9938 37.1267 83.9871 37.8133 83.9738 38.6C83.9604 39.3733 83.9338 40.1667 83.8938 40.98C83.8538 41.7933 83.7938 42.5667 83.7138 43.3C83.6338 44.02 83.5271 44.6333 83.3938 45.14C83.0871 46.2733 82.6271 47.3267 82.0138 48.3C81.4138 49.26 80.6871 50.12 79.8338 50.88L77.3938 49.26Z" fill="#1E2939"/>
</svg>
